<svg width="16" height="16" viewBox="0 0 16 16" fill="none" xmlns="http://www.w3.org/2000/svg">
<path d="M1.06934 12.0015C1.41565 12.599 1.8418 13.1554 2.34314 13.6569C3.85425 15.1678 5.86316 16 8 16C10.137 16 12.1459 15.1678 13.6569 13.6569C14.1583 13.1554 14.5844 12.599 14.9307 12.0015C15.6281 10.7982 16 9.42786 16 8C16 6.57214 15.6281 5.20178 14.9307 3.99854C14.5844 3.401 14.1582 2.84448 13.6569 2.34314C12.1459 0.832153 10.137 0 8 0C5.86316 0 3.85413 0.832153 2.34314 2.34314C1.84167 2.84448 1.41553 3.401 1.06934 3.99854C0.371948 5.20178 0 6.57227 0 8C0 9.42773 0.371948 10.7982 1.06934 12.0015ZM5.95837 8C5.95837 7.62842 6.05859 7.28015 6.23279 6.97961C6.5863 6.36975 7.24573 5.95825 8 5.95825C8.75427 5.95825 9.4137 6.36975 9.76733 6.97961C9.94141 7.28003 10.0417 7.62842 10.0417 8C10.0417 8.37158 9.94141 8.71985 9.76733 9.02026C9.41382 9.63025 8.75427 10.0416 8 10.0416C7.24573 10.0416 6.5863 9.63025 6.23267 9.02026C6.05859 8.71985 5.95837 8.37158 5.95837 8Z" fill="#FF8398"/>
<path d="M8 13.0208V16C10.137 16 12.1459 15.1678 13.6569 13.6569C14.1583 13.1554 14.5844 12.599 14.9307 12.0015L12.3488 10.5107C11.4806 12.0112 9.85828 13.0208 8 13.0208Z" fill="#54E360"/>
<path d="M13.0209 8C13.0209 8.91467 12.7761 9.77222 12.3488 10.5107L14.9307 12.0015C15.6281 10.7982 16 9.42786 16 8C16 6.57214 15.6281 5.20178 14.9307 3.99854L12.3488 5.48914C12.7761 6.22778 13.0209 7.08533 13.0209 8Z" fill="#008ADF"/>
<path d="M3.65125 10.5107L1.06934 12.0015C1.41565 12.599 1.8418 13.1554 2.34314 13.6569C3.85425 15.1678 5.86316 16 8 16V13.0208C6.14172 13.0208 4.51941 12.0112 3.65125 10.5107Z" fill="#FFD400"/>
<path d="M12.3488 5.48914L14.9307 3.99854C14.5844 3.401 14.1582 2.84448 13.6569 2.34314C12.1459 0.832153 10.137 0 8 0V2.97913C9.85828 2.97913 11.4806 3.98877 12.3488 5.48914Z" fill="#0065A3"/>
<path d="M1.06934 12.0015L3.65125 10.5107C3.22388 9.77222 2.97925 8.91467 2.97925 8C2.97925 7.08533 3.22388 6.22778 3.65125 5.48926L1.06934 3.99854C0.371948 5.20178 0 6.57227 0 8C0 9.42773 0.371948 10.7982 1.06934 12.0015Z" fill="#FF9100"/>
<path d="M8 2.97913V0C5.86316 0 3.85413 0.832153 2.34314 2.34314C1.84167 2.84448 1.41553 3.401 1.06934 3.99854L3.65125 5.48926C4.51941 3.98877 6.14172 2.97913 8 2.97913Z" fill="#FF4949"/>
<path d="M10.0417 8C10.0417 8.37158 9.94141 8.71985 9.76733 9.02026L12.3488 10.5107C12.7761 9.77222 13.0209 8.91467 13.0209 8C13.0209 7.08521 12.7761 6.22778 12.3488 5.48914L9.76733 6.97961C9.94141 7.28003 10.0417 7.62842 10.0417 8Z" fill="#0065A3"/>
<path d="M9.76733 6.97961L12.3488 5.48926C11.4806 3.98877 9.85828 2.97913 8 2.97913V5.95825C8.75427 5.95825 9.4137 6.36975 9.76733 6.97961Z" fill="#005183"/>
<path d="M8 10.0416V13.0208C9.85828 13.0208 11.4806 12.0112 12.3488 10.5107L9.76733 9.02039C9.41382 9.63025 8.75427 10.0416 8 10.0416Z" fill="#00AB5E"/>
<path d="M8 13.0208V10.0416C7.24573 10.0416 6.5863 9.63025 6.23267 9.02026L3.65125 10.5107C4.51941 12.0112 6.14172 13.0208 8 13.0208Z" fill="#FF9F04"/>
<path d="M5.95837 8C5.95837 7.62842 6.05859 7.28015 6.23279 6.97961L3.65125 5.48926C3.22388 6.22778 2.97925 7.08533 2.97925 8C2.97925 8.91467 3.22388 9.77222 3.65125 10.5107L6.23267 9.02026C6.05859 8.71985 5.95837 8.37158 5.95837 8Z" fill="#FF4B00"/>
<path d="M8 5.95825V2.97913C6.14172 2.97913 4.51941 3.98877 3.65125 5.48926L6.23279 6.97961C6.5863 6.36975 7.24573 5.95825 8 5.95825Z" fill="#E80048"/>
</svg>
